<?xml version="1.0" encoding="utf-8"?>
<!-- Generator: Adobe Illustrator 23.0.6, SVG Export Plug-In . SVG Version: 6.00 Build 0)  -->
<svg version="1.1" id="图层_1" xmlns="http://www.w3.org/2000/svg" xmlns:xlink="http://www.w3.org/1999/xlink" x="0px" y="0px"
	 viewBox="0 0 200 200" style="enable-background:new 0 0 200 200;" xml:space="preserve">
<style type="text/css">
	.st0{fill:#FFFFFF;}
</style>
<g>
	<path class="st0" d="M152.1,86.9c3.4-0.2,5.4-0.2,5.4-0.2c-0.7-0.1-1.5-0.3-2.3-0.4c-3.2-0.5-7.2-0.7-11.8-0.8c-0.5,0-1.1,0-1.6,0
		c-10.9,0-24.5,1.3-36.5,4.6l-1.1,5.4c0.8-0.2,1.5-0.5,2.2-0.7C125.3,89.1,143.4,87.4,152.1,86.9z M74.1,93.4c0-0.9-0.2-1.7-0.5-2.4
		c-1.2-2.9-4.5-4.3-8.9-4.3H38.5l-1.8,4.1h23c0,0,4.2-0.1,5.4,2c0.2,0.3,0.3,0.7,0.3,1.2c0,4.7-15.5,8.7-15.5,8.7l9.8,9.7h11.1
		c-4.8-5.5-10.8-9.7-10.8-9.7C67.7,102.4,74.1,98.9,74.1,93.4z"/>
	<path class="st0" d="M41.3,93.4l-6.9,19h9l6.9-19H41.3z M134.4,93.1c-2.2,0.2-4.5,0.5-6.7,0.8l-4.4,18.5h6.9l4.6-19.3
		C134.7,93.1,134.5,93.1,134.4,93.1z M111.3,112.8c-0.6,1.9-1.3,3.3-2.2,4.1c-1,1-2.6,1.7-4.8,2.3c0,0,0,0-0.1,0l-0.9,3.7
		c2.2-0.2,8-1,11.5-4.4c1.9-1.8,3.1-4.6,3.8-6.8l4.3-17.2c-2.5,0.4-4.9,0.7-7.2,1.1C114.1,102.7,112.7,108.5,111.3,112.8z
		 M110.9,96.4c-2.6,0.4-5,0.9-7.2,1.3l-3.5,14.7h6.9C107.1,112.4,110.9,96.4,110.9,96.4z M93.1,92.5c0,0-1.4,7.8-2.7,12.2
		c-0.2,0.6-0.3,1.1-0.6,1.6c0,0,0,0,0,0c-0.1,0.1-0.2,0.3-0.2,0.4c-0.7,1-1.8,1.7-4.1,1.9c-3,0.3-4.4-0.5-4-2.6l3.3-13.6h-7.4
		l-3.6,15.4c-0.3,1.9,0.6,3.3,2.4,4c1,0.4,2.2,0.6,3.6,0.6c11.4,0,15.3-0.2,16.9-4.9c0.8-2.5,3.5-15,3.5-15L93.1,92.5L93.1,92.5z
		 M158.8,95c-1.3-1.6-3.8-2.7-7.3-2.7c-0.4,0-0.8,0-1.1,0c-4.5,0.3-7.5,1.3-10.5,3.5c-2.9,2.1-4.4,4.6-4.9,7c-0.1,0.5-0.2,1-0.2,1.4
		c-0.2,2.4,1.2,6.5,7.2,7.8c5.6,1.2,12.3-1.2,14-1.9l1.2-4.8c-1.6,0.8-13.7,6.9-14.7,0.1c0.1,0,9.6-1.7,11.2-2
		c1.8-0.4,5.8-1.6,6.1-5.1C159.9,97.1,159.6,96,158.8,95z M148.6,102.5c-6,1.2-6.1,1.2-6.1,1.2s1.1-5.4,7.7-7.2
		C154.4,95.3,154.5,101.4,148.6,102.5z"/>
</g>
</svg>
