<?xml version="1.0" encoding="utf-8"?>
<!-- Generator: Adobe Illustrator 24.0.0, SVG Export Plug-In . SVG Version: 6.00 Build 0)  -->
<svg version="1.1" id="图层_1" xmlns="http://www.w3.org/2000/svg" xmlns:xlink="http://www.w3.org/1999/xlink" x="0px" y="0px"
	 viewBox="0 0 200 200" style="enable-background:new 0 0 200 200;" xml:space="preserve">
<style type="text/css">
	.st0{fill:#FFFFFF;}
</style>
<g>
	<path class="st0" d="M121.8,100.8l0.5-2.2h-2.9l0.4-2h3l0.5-2.2h-8.6l-0.5,2.2h2.7l-0.4,2h-2.7l-0.5,2.2h2.7l-0.3,1.5l-0.3,1.3
		c-0.2,0.8-0.3,2.6,1.1,2.7h4.7l0.6-2.6h-3.4l0.6-2.9H121.8z"/>
	<polygon class="st0" points="117.6,93.1 123.5,93.1 124,91 118.3,91 119.2,88.8 116.5,88.8 114.9,93.1 114.9,93.1 116.4,93.1 	"/>
	<path class="st0" d="M125.8,100.6l-1.3,3.1h-1.9l-0.6,2.6h2.8c1.5,0,1.9-0.7,2.5-2.2c0.3-0.7,0.8-2.1,1.1-3.1
		c0.1-0.3,0.3-0.5,0.3-0.5L125.8,100.6L125.8,100.6z"/>
	<polygon class="st0" points="136.6,88.8 133.4,88.8 132.6,91.9 135.5,91.9 	"/>
	<polygon class="st0" points="130.9,88.8 127.9,88.8 127.4,91.9 130.1,91.9 	"/>
	<path class="st0" d="M44.9,108.4c-0.1-0.1-0.3-0.2-0.6-0.3c-0.3-0.1-0.5-0.1-0.8-0.1c-0.3,0-0.6,0-0.9,0.1
		c-0.3,0.1-0.6,0.2-0.8,0.3c-0.3,0.2-0.5,0.3-0.7,0.6c-0.2,0.2-0.3,0.5-0.4,0.7c-0.1,0.2-0.1,0.4-0.1,0.6c0.1,0.2,0.2,0.4,0.3,0.5
		c0.2,0.2,0.4,0.2,0.7,0.3c0.3,0.1,0.6,0.1,1,0.1c0.2,0,0.4,0,0.6,0s0.5-0.1,0.8-0.1c0.2-0.3,0.3-0.5,0.4-0.6
		c-0.3,0.1-0.6,0.1-0.8,0.2c-0.2,0-0.5,0.1-0.6,0.1c-0.2,0-0.3,0-0.5-0.1c-0.2,0-0.3-0.1-0.4-0.2s-0.2-0.2-0.2-0.3
		c0-0.1,0-0.2,0-0.4c0-0.1,0-0.1,0.1-0.2h3c0.1-0.1,0.1-0.2,0.1-0.3c0.1-0.2,0.1-0.4,0-0.5C45.1,108.6,45,108.5,44.9,108.4z
		 M44.1,109c0,0.1,0,0.1-0.1,0.2h-1.9c0.1-0.1,0.1-0.2,0.2-0.2c0.1-0.1,0.1-0.1,0.2-0.2c0.1-0.1,0.2-0.1,0.3-0.2
		c0.1-0.1,0.2-0.1,0.3-0.1c0.1,0,0.2,0,0.4,0c0.1,0,0.2,0,0.3,0c0.1,0,0.2,0.1,0.2,0.1c0.1,0,0.1,0.1,0.2,0.1l0.1,0.2
		C44.1,108.9,44.1,109,44.1,109z"/>
	<path class="st0" d="M106.6,89.6c2-0.1,3.2-0.1,3.2-0.1c-0.4-0.1-0.9-0.2-1.4-0.2c-1.9-0.3-4.3-0.5-7-0.5h-1
		c-6.5,0-14.7,0.8-21.9,2.8l-0.7,3.3c0.5-0.2,0.9-0.3,1.3-0.4C90.6,91,101.4,89.9,106.6,89.6z"/>
	<path class="st0" d="M54.5,93.1c0.1,0.2,0.2,0.4,0.2,0.7c0,2.8-9.3,5.2-9.3,5.2l5.9,5.8h6.7c-2.8-3.3-6.5-5.8-6.5-5.8
		c4.6-0.2,8.5-2.3,8.5-5.5c0-0.6-0.1-1-0.3-1.5c-0.7-1.7-2.7-2.6-5.3-2.6H38.6l-1.1,2.5h13.8C51.3,91.9,53.8,91.9,54.5,93.1z"/>
	<path class="st0" d="M40.3,107.1h-0.6c-0.1,0.2-0.1,0.3-0.1,0.3l-1,2.7c-0.2-0.4-0.5-0.9-0.8-1.6c-0.4-0.6-0.6-1.1-0.8-1.5h-1.5
		c-0.1,0.4-0.3,0.9-0.5,1.4l-0.6,1.5c-0.2,0.4-0.3,0.8-0.5,1.2h1.2c0.2-0.5,0.3-0.9,0.4-1.3c0.3-0.9,0.5-1.5,0.7-1.8
		c0.1,0.2,0.3,0.5,0.4,0.8c0.2,0.4,0.4,0.8,0.6,1c0.2,0.4,0.4,0.7,0.5,0.8c0.1,0.1,0.1,0.2,0.2,0.4h1.5l0.4-1.1l0.7-1.9l0.5-1.1
		C40.6,107.1,40.4,107.1,40.3,107.1z"/>
	<path class="st0" d="M47.7,107.4c-0.3,0.1-0.5,0.1-0.6,0.1l-0.5,0.1c-0.1,0.3-0.2,0.5-0.2,0.6h-0.6c-0.1,0.3-0.2,0.5-0.2,0.6h0.6
		l-0.5,1.2c-0.1,0.3-0.2,0.4-0.2,0.4c0,0.1,0,0.1,0,0.1c0,0.1-0.1,0.2,0,0.3c0,0.1,0.1,0.2,0.1,0.3c0.1,0.1,0.2,0.1,0.4,0.2
		c0.2,0,0.3,0.1,0.5,0.1c0.1,0,0.3,0,0.4,0c0.1,0,0.3,0,0.6-0.1c0.2-0.3,0.3-0.5,0.4-0.6c-0.2,0-0.4,0.1-0.4,0.1H47
		c-0.1,0-0.2,0-0.3-0.1c-0.1,0-0.1-0.1-0.1-0.2c0-0.1,0-0.2,0-0.3c0.1-0.1,0.2-0.6,0.5-1.4h1.1c0-0.1,0.1-0.3,0.2-0.6h-1.1
		C47.5,107.9,47.6,107.6,47.7,107.4z"/>
	<path class="st0" d="M134.7,99.8L134.7,99.8c1.5,0,2-1,2.2-1.9c0.1-0.5,0.4-1.9,0.6-3.1c0,0-2,0.5-3,0.8l-0.5,2.3h-6.6
		c0,0-1.1,0.4-2.8,1c0.2-0.1,2.8-1.8,2.8-1.8l0.6-2.6h4.7c1.4-0.6,3-1.3,4.8-1.8h-12l-1.6,7.2h6.2c0,0-1.1,4.5-1.2,5.1
		s-0.1,1.4,1,1.4h5.9l0.4-1.5c0,0,0,0,0-0.1c0.2-0.7,0.5-1,0.5-1h-4.3l0.8-3.8H134.7z"/>
	<path class="st0" d="M55.8,108.1h-0.6l-0.6,0.7l-1,1.2c-0.1,0.1-0.1,0.1-0.1,0.2l-0.2,0.2v-0.3l-0.1-2h-1.2l-1.8,2.2l-0.3-2.2h-1.1
		l0.1,0.5l0.3,1.4l0.2,1.1h1.1l1.4-1.7c0.2-0.3,0.3-0.4,0.4-0.5l0.1,2.2h1.2c0.3-0.4,0.7-0.8,1.1-1.2l1.7-1.9
		C56.1,108.1,55.9,108.1,55.8,108.1z"/>
	<path class="st0" d="M67.7,109.2l1.7-1.1h-1.3c-0.2,0.2-0.4,0.3-0.5,0.4c-0.1,0.1-0.2,0.2-0.3,0.2l-1.1,0.7
		c0.1,0.1,0.1,0.2,0.1,0.2l0.5,0.7c0.1,0.1,0.1,0.2,0.2,0.3c0.1,0.1,0.2,0.3,0.3,0.5h1.3c-0.6-0.9-1-1.5-1.2-1.7L67.7,109.2z"/>
	<path class="st0" d="M165.6,90.6c-1.7-0.5-4.2-0.8-7.2-0.9l0.2-0.9h-3l-0.2,0.8c-2.3,0-4.7,0.2-7.1,0.5l0.3-1.3h-3.2l-0.5,1.7
		c-1.8,0.3-3.5,0.7-5.2,1.1l-0.7,2.7c1.8-0.6,3.6-1.1,5.3-1.5l-0.9,3.3l-3.9,1.2l-0.7,2.9l3.8-1.2l-1.2,4.5h-4l-0.6,2.6h5.3
		c0.8,0,2-0.3,2.2-1.4l0.7-2.6l0.9-3.6l0.8-3.2l0.8-3.2c2.6-0.5,5.1-0.9,7.3-1.1l-0.3,1.4h-5.1l-0.5,1.8h5.1l-0.3,1.1h-5.1l-0.5,2
		h5.1l-0.2,0.8h-5.2l-0.5,2h5.2l-0.9,3.7c-1.1-0.1-1.6-1.2-1.7-1.5l0.3-1.4h-3.1l-1.4,5.4h3.1l0.3-1c0.3,0.4,1,1,1.8,1h9.3
		c0,0,0.4-1.6,0.4-1.6c0.2-0.7,0.5-1,0.5-1h-6.4l0.2-0.9h4.4l0.5-1.9h-4.4l0.2-1h3.4c0.6,0,1.5-0.3,1.8-1.2l0.5-1.6h1l0.5-2h-1
		l0.7-2.9h-5l0.4-1.6C162.7,90.5,165.6,90.6,165.6,90.6z M158.5,98.2l-2.1,0l0.2-1h2.5C159.2,97.2,159,98.2,158.5,98.2z M159.8,94.2
		l-0.3,1.1h-2.4l0.3-1.1H159.8z"/>
	<path class="st0" d="M71.1,108.1L71.1,108.1c-0.3,0.1-0.5,0.2-0.6,0.3c-0.2,0.1-0.3,0.3-0.3,0.4c0,0.1,0,0.2,0,0.3
		c0,0.1,0.1,0.2,0.1,0.2c0.1,0.1,0.1,0.2,0.2,0.2c0.1,0.1,0.2,0.2,0.4,0.3l0.2,0.1c0.1,0.1,0.1,0.1,0.2,0.1l0.1,0.1
		c0,0,0,0.1,0.1,0.1c0,0,0,0.1,0,0.1v0.1c0,0.1-0.1,0.1-0.1,0.2c-0.1,0.1-0.2,0.1-0.3,0.1c-0.1,0-0.3,0.1-0.4,0.1
		c-0.2,0-0.3,0-0.5-0.1c-0.2,0-0.4-0.1-0.6-0.2l-0.1,0.7c0.3,0.1,0.5,0.1,0.7,0.1s0.4,0,0.6,0c0.3,0,0.6,0,0.9-0.1
		c0.3-0.1,0.5-0.2,0.7-0.3c0.2-0.1,0.3-0.3,0.3-0.4c0-0.1,0-0.2,0-0.3c0-0.1-0.1-0.2-0.1-0.3c-0.1-0.1-0.2-0.2-0.3-0.2
		s-0.2-0.2-0.4-0.3c-0.2-0.1-0.2-0.2-0.3-0.2c-0.1,0-0.1-0.1-0.1-0.1c0,0-0.1-0.1-0.1-0.1v-0.1c0-0.1,0.1-0.1,0.1-0.2
		c0.1-0.1,0.2-0.1,0.3-0.1c0.1,0,0.3,0,0.4,0c0.3,0,0.6,0.1,0.9,0.2l0.2-0.6c-0.5-0.1-0.9-0.1-1.2-0.1C71.7,108,71.4,108,71.1,108.1
		z"/>
	<path class="st0" d="M60.6,108.4c-0.2-0.1-0.4-0.2-0.7-0.3c-0.3-0.1-0.6-0.1-0.9-0.1c-0.4,0-0.7,0.1-1,0.1s-0.7,0.2-0.9,0.4
		c-0.3,0.2-0.5,0.3-0.6,0.5c-0.2,0.2-0.3,0.4-0.4,0.6c-0.1,0.2-0.1,0.4,0,0.6c0.1,0.2,0.2,0.4,0.3,0.5c0.2,0.1,0.4,0.2,0.7,0.3
		s0.6,0.1,0.9,0.1c0.4,0,0.7-0.1,1-0.1c0.3-0.1,0.6-0.2,0.9-0.4c0.3-0.2,0.5-0.3,0.6-0.6c0.2-0.2,0.3-0.4,0.4-0.7
		c0.1-0.2,0.1-0.4,0.1-0.6C60.8,108.7,60.7,108.6,60.6,108.4z M59.6,109.5c-0.1,0.2-0.2,0.4-0.3,0.6c-0.2,0.2-0.3,0.3-0.5,0.4
		c-0.2,0.1-0.4,0.1-0.7,0.1c-0.2,0-0.4-0.1-0.6-0.1c-0.2-0.1-0.2-0.2-0.3-0.3c0-0.1,0-0.3,0-0.5c0.1-0.2,0.2-0.4,0.3-0.6
		c0.2-0.2,0.3-0.3,0.5-0.4c0.2-0.1,0.5-0.1,0.7-0.1c0.3,0,0.4,0.1,0.6,0.1c0.2,0.1,0.2,0.2,0.3,0.3
		C59.7,109.2,59.7,109.4,59.6,109.5z"/>
	<path class="st0" d="M67.1,107.1h-1.2c-0.1,0.1-0.1,0.3-0.2,0.5l-0.5,1.3l-0.6,1.5l-0.3,0.8h1.2l0.1-0.4l0.4-1.2l0.6-1.5
		L67.1,107.1z"/>
	<path class="st0" d="M64.6,108c-0.1,0-0.2,0-0.3,0c-0.1,0-0.2,0-0.4,0s-0.2,0.1-0.3,0.1c-0.1,0.1-0.2,0.1-0.3,0.1
		c-0.1,0.1-0.2,0.1-0.4,0.3l0.2-0.4H62c-0.1,0.2-0.1,0.3-0.1,0.3c-0.1,0.2-0.1,0.3-0.2,0.5l-0.3,0.8l-0.6,1.4h1.2
		c0-0.2,0.1-0.3,0.1-0.4c0.1-0.3,0.2-0.5,0.3-0.7s0.2-0.4,0.2-0.5c0.1-0.1,0.1-0.3,0.2-0.3c0.1-0.1,0.2-0.2,0.3-0.3
		c0.1-0.1,0.3-0.1,0.4-0.2c0.1,0,0.3-0.1,0.5-0.1c0.1,0,0.3,0,0.4,0.1C64.5,108.5,64.6,108.2,64.6,108z"/>
	<path class="st0" d="M96,93.4c-1.3,0.1-2.7,0.3-4,0.5l-2.6,11.1h4.2l2.7-11.6C96.2,93.4,96.1,93.4,96,93.4z"/>
	<path class="st0" d="M106.3,92.9c-0.2,0-0.5,0-0.7,0c-2.7,0.2-4.5,0.8-6.3,2.1c-1.7,1.3-2.6,2.8-2.9,4.2c-0.1,0.3-0.1,0.6-0.1,0.9
		c-0.1,1.4,0.7,3.9,4.3,4.7c3.3,0.7,7.4-0.7,8.4-1.2l0.8-2.9c-1,0.5-8.2,4.2-8.8,0.1c0.1,0,5.8-1,6.7-1.2c1.1-0.2,3.4-1,3.7-3
		c0.1-0.7-0.1-1.4-0.6-2C109.9,93.5,108.4,92.9,106.3,92.9z M104.5,99c-3.6,0.7-3.7,0.7-3.7,0.7s0.7-3.2,4.6-4.3
		C108,94.7,108.1,98.3,104.5,99z"/>
	<path class="st0" d="M82.2,105.2c-0.4,1.2-0.8,2-1.3,2.5c-0.6,0.6-1.6,1.1-2.9,1.4c0,0,0,0,0,0l-0.5,2.2c1.3-0.1,4.8-0.6,6.9-2.6
		c1.1-1.1,1.9-2.7,2.3-4.1l2.6-10.3c-1.5,0.2-2.9,0.4-4.3,0.7C83.9,99.1,83,102.6,82.2,105.2z"/>
	<polygon class="st0" points="45.6,93.5 40.3,93.5 36.1,104.9 41.5,104.9 	"/>
	<path class="st0" d="M71.3,92.9L71.3,92.9c0,0.1-0.9,4.7-1.6,7.3c-0.1,0.4-0.2,0.7-0.4,0.9l0,0c-0.1,0.1-0.1,0.2-0.2,0.3
		c-0.4,0.6-1.1,1-2.5,1.1c-1.8,0.2-2.7-0.3-2.4-1.5l2-8.1h-4.4l-2.1,9.2c-0.2,1.2,0.4,2,1.5,2.4c0.6,0.2,1.3,0.3,2.2,0.3
		c6.8,0,9.2-0.2,10.1-3c0.5-1.5,2.1-9,2.1-9H71.3z"/>
	<path class="st0" d="M81.9,95.3c-1.5,0.3-3,0.5-4.3,0.8l-2.1,8.8h4.2L81.9,95.3z"/>
</g>
</svg>
