<?xml version="1.0" encoding="utf-8"?>
<!-- Generator: Adobe Illustrator 24.0.0, SVG Export Plug-In . SVG Version: 6.00 Build 0)  -->
<svg version="1.1" id="图层_1" xmlns="http://www.w3.org/2000/svg" xmlns:xlink="http://www.w3.org/1999/xlink" x="0px" y="0px"
	 viewBox="0 0 200 200" style="enable-background:new 0 0 200 200;" xml:space="preserve">
<style type="text/css">
	.st0{fill:#FFFFFF;}
</style>
<g>
	<path class="st0" d="M152.1,98.7c0,0-0.1,0-0.1,0c-0.1,0-0.2,0.1-0.3,0.1h0c-0.5,0.2-0.9,0.3-1.2,0.4c0,0,0.1-0.1,0.3-0.2
		c0,0,0.1,0,0.1-0.1c0,0,0,0,0.1,0c0,0,0.1,0,0.1-0.1s0,0,0.1,0c0,0,0.1-0.1,0.1-0.1c0,0,0,0,0.1,0c0.3-0.2,0.7-0.4,1.1-0.6l0.3-0.2
		l0,0l-0.4-0.2l-3.7-1.5l-0.5,0.2l-5.6,2.2h-0.1v0l-2.9,1.2l-0.4,1.7l2.9-1.1l-1.2,4.5h11.5c0.8,0,1.1-1,1.1-1l0.9-3.5l1.3,0.5
		l0.4-1.7l-2.5-1C152.9,98.4,152.5,98.5,152.1,98.7z M147.9,98c0.1,0,0.1,0,0.2,0.1l1.5,0.6h-3.5L147.9,98z M151.2,103.3
		c-0.1,0.4-0.5,0.4-0.6,0.4h-7.3l0.1-0.5L151.2,103.3L151.2,103.3z M151.5,102h-7.8l0.1-0.5h7.8L151.5,102z M151.9,100.3h-7.8
		l0.1-0.5h7.8L151.9,100.3z"/>
	<path class="st0" d="M149.7,93.5l0.3-1.2h3.9v0h0c0,0,0.1-0.3,0.1-0.5l0.1-0.2c0.1-0.2,0.2-0.3,0.2-0.3h-6.5l-0.8,3.1l-7,2.8
		l-0.4,1.7l8.9-3.4c0,0,0,0,0,0c1.9,0.8,5,1.9,5,1.9l2-1.1l1.3-0.6l0.5-2.1L149.7,93.5z M154.7,95.9l-3.3-1.3h3.7L154.7,95.9z"/>
	<path class="st0" d="M162.5,92.9h6.9c0.5,0,1,0,1.5,0l-0.1,0.3l2.2,0l0.5-2h-12.9l-0.7,2.9c0.8-0.2,1.5-0.3,2.3-0.4L162.5,92.9z"/>
	<path class="st0" d="M164.1,97.8l-0.2,0.3l-3.3,5.1h-2.9l-0.4,1.6h3.8c0.4,0,0.7-0.2,0.9-0.5l3-4.7h1.9l-3.3,5.3h1.7
		c0.4,0,0.7-0.2,0.9-0.5l3-4.7h2.1l-0.7,2.9l0,0.1c-0.1,0.2-0.2,0.4-0.8,0.4h-1.3l-0.5,1.8h3.4c0.8,0,1.1-0.9,1.1-0.9l0.1-0.6
		l1.4-5.6L164.1,97.8L164.1,97.8z"/>
	<polygon class="st0" points="142.8,94.6 143.5,94.6 145.4,93.9 145.5,93.5 140.9,93.5 140.3,96 142.4,96 	"/>
	<path class="st0" d="M172.2,96.6l0.6-2.4c-1.1,0.1-1.3,0.1-2.3,0.2l-0.2,0.9c-0.1,0.3-0.4,0.6-0.7,0.6h-6.2
		c-1.8,0.5-2.8,0.9-4.2,1.3l-0.1,0.3h12C171.6,97.4,172.1,97.1,172.2,96.6z"/>
	<path class="st0" d="M160.3,101.1l1.6-2.8H160l-1.9,3.3h1.3v0C159.7,101.6,160.1,101.4,160.3,101.1z"/>
	<path class="st0" d="M93.2,100.6l0.4-1.7h-2.3l0.3-1.6H94l0.4-1.7h-6.7l-0.4,1.7h2.1L89,98.9h-2.1l-0.4,1.7h2.1l-0.3,1.2l-0.2,1
		c-0.1,0.6-0.2,2,0.9,2.1h3.6l0.4-2h-2.7l0.5-2.2H93.2z"/>
	<polygon class="st0" points="90,94.6 94.6,94.6 95,93 90.5,93 91.2,91.3 89.2,91.3 87.9,94.6 87.9,94.6 89.1,94.6 	"/>
	<rect x="132.7" y="93.8" class="st0" width="0.7" height="9.4"/>
	<path class="st0" d="M96.3,100.4l-1,2.4h-1.4l-0.4,2h2.1c1.2,0,1.5-0.5,1.9-1.7c0.2-0.5,0.6-1.6,0.9-2.4c0.1-0.2,0.2-0.4,0.2-0.4
		L96.3,100.4L96.3,100.4z"/>
	<polygon class="st0" points="104.8,91.3 102.2,91.3 101.6,93.7 103.9,93.7 	"/>
	<polygon class="st0" points="100.3,91.3 98,91.3 97.6,93.7 99.6,93.7 	"/>
	<path class="st0" d="M170.7,93.5c-5.7,0.2-8.1,0.4-12.7,1.7l-0.5,2.1c1.3-0.7,9.1-3.2,17.5-3.8C174.2,93.7,172.5,93.4,170.7,93.5z"
		/>
	<path class="st0" d="M33.5,106.5c-0.1-0.1-0.3-0.2-0.4-0.2c-0.2,0-0.4-0.1-0.6-0.1c-0.2,0-0.5,0-0.7,0.1c-0.2,0-0.4,0.1-0.6,0.2
		s-0.4,0.3-0.5,0.4s-0.3,0.4-0.3,0.5c-0.1,0.2-0.1,0.3,0,0.5c0,0.2,0.1,0.3,0.3,0.4c0.1,0.1,0.3,0.2,0.5,0.2c0.2,0,0.4,0.1,0.7,0.1
		c0.2,0,0.3,0,0.5,0s0.4,0,0.6-0.1c0.1-0.2,0.2-0.4,0.3-0.5c-0.3,0.1-0.5,0.1-0.6,0.1s-0.4,0-0.5,0c-0.1,0-0.3,0-0.4,0
		s-0.2-0.1-0.3-0.1s-0.1-0.1-0.2-0.2c0-0.1,0-0.2,0-0.3c0,0,0-0.1,0.1-0.1h2.4c0-0.1,0.1-0.2,0.1-0.2c0-0.2,0.1-0.3,0-0.4
		C33.7,106.7,33.7,106.6,33.5,106.5z M32.9,107c0,0,0,0.1,0,0.2h-1.5c0-0.1,0.1-0.1,0.1-0.2s0.1-0.1,0.1-0.1s0.1-0.1,0.2-0.1
		s0.2-0.1,0.3-0.1c0.1,0,0.2,0,0.3,0c0.1,0,0.2,0,0.2,0s0.1,0,0.2,0.1s0.1,0.1,0.1,0.1l0.1,0.1C32.9,106.9,32.9,107,32.9,107z"/>
	<path class="st0" d="M81.4,92c1.6-0.1,2.5-0.1,2.5-0.1c-0.3-0.1-0.7-0.1-1.1-0.2c-1.5-0.2-3.3-0.4-5.5-0.4h-0.8
		c-5.1,0-11.4,0.6-17,2.1L59.2,96c0.4-0.1,0.7-0.2,1-0.3C69,93,77.4,92.2,81.4,92z"/>
	<path class="st0" d="M41,94.7c0.1,0.2,0.1,0.3,0.1,0.5c0,2.2-7.2,4.1-7.2,4.1l4.6,4.5h5.2c-2.2-2.5-5-4.5-5-4.5
		c3.6-0.1,6.6-1.8,6.6-4.3c0-0.4-0.1-0.8-0.2-1.1c-0.5-1.3-2.1-2-4.1-2H28.6l-0.8,1.9h10.7C38.5,93.8,40.5,93.7,41,94.7z"/>
	<path class="st0" d="M30,105.5h-0.4c0,0.1-0.1,0.2-0.1,0.3l-0.8,2.1c-0.2-0.3-0.4-0.7-0.6-1.2s-0.5-0.9-0.6-1.2h-1.2
		c-0.1,0.3-0.2,0.7-0.4,1.1l-0.4,1.1c-0.1,0.3-0.3,0.6-0.4,0.9h0.9c0.1-0.4,0.2-0.7,0.3-1c0.3-0.7,0.4-1.1,0.5-1.4
		c0.1,0.2,0.2,0.4,0.3,0.6c0.2,0.3,0.3,0.6,0.4,0.8c0.2,0.3,0.3,0.5,0.4,0.6c0,0.1,0.1,0.2,0.2,0.3h1.2l0.3-0.9l0.5-1.4l0.4-0.8
		C30.2,105.5,30,105.5,30,105.5z"/>
	<path class="st0" d="M35.7,105.7c-0.2,0-0.4,0.1-0.5,0.1l-0.4,0.1c-0.1,0.2-0.1,0.4-0.2,0.4h-0.5c-0.1,0.2-0.1,0.4-0.2,0.4h0.5
		l-0.4,1C34,107.9,34,108,34,108s0,0.1,0,0.1c0,0.1,0,0.2,0,0.2c0,0.1,0,0.1,0.1,0.2s0.2,0.1,0.3,0.1s0.3,0,0.4,0c0.1,0,0.2,0,0.3,0
		c0.1,0,0.3,0,0.4-0.1c0.1-0.2,0.2-0.4,0.3-0.5c-0.2,0-0.3,0-0.3,0.1h-0.2c-0.1,0-0.1,0-0.2,0s-0.1-0.1-0.1-0.1c0-0.1,0-0.1,0-0.2
		c0-0.1,0.2-0.5,0.4-1.1h0.8c0-0.1,0.1-0.2,0.2-0.4h-0.8C35.6,106.1,35.6,105.9,35.7,105.7z"/>
	<path class="st0" d="M103.2,99.9L103.2,99.9c1.2,0,1.6-0.7,1.7-1.5c0.1-0.4,0.3-1.5,0.5-2.4c0,0-1.5,0.4-2.3,0.6l-0.4,1.8h-5.2
		c0,0-0.8,0.3-2.2,0.7c0.1-0.1,2.2-1.4,2.2-1.4l0.5-2.1h3.7c1.1-0.4,2.3-1,3.7-1.4H96l-1.3,5.6h4.8c0,0-0.8,3.5-0.9,3.9
		s0,1.1,0.8,1.1h4.6l0.3-1.2c0,0,0,0,0,0c0.1-0.6,0.4-0.8,0.4-0.8h-3.3l0.6-3H103.2z"/>
	<path class="st0" d="M42,106.3h-0.4l-0.5,0.6l-0.8,0.9c-0.1,0.1-0.1,0.1-0.1,0.1l-0.1,0.2v-0.2l-0.1-1.5h-0.9l-1.4,1.7l-0.2-1.7
		h-0.9l0.1,0.4l0.2,1.1l0.1,0.8h0.9l1.1-1.3c0.2-0.2,0.3-0.3,0.3-0.4l0.1,1.7h0.9c0.3-0.3,0.5-0.6,0.8-0.9l1.3-1.4
		C42.2,106.3,42.1,106.3,42,106.3z"/>
	<path class="st0" d="M51.3,107.1l1.3-0.9h-1c-0.2,0.1-0.3,0.2-0.4,0.3c-0.1,0.1-0.2,0.1-0.3,0.2l-0.8,0.6c0.1,0.1,0.1,0.2,0.1,0.2
		l0.4,0.6c0,0.1,0.1,0.1,0.1,0.2c0.1,0.1,0.1,0.2,0.2,0.4h1c-0.5-0.7-0.8-1.1-0.9-1.3L51.3,107.1z"/>
	<path class="st0" d="M121.9,91.3h-2.4l-0.2,0.6c-1.8,0-3.7,0.1-5.5,0.4l0.3-1h-2.5l-0.4,1.3c-1.4,0.2-2.7,0.5-4.1,0.9l-0.5,2.1
		c1.4-0.4,2.8-0.8,4.1-1.2l-0.7,2.6l-3,0.9l-0.5,2.3l3-0.9l-0.9,3.5h-3.1l-0.5,2h4.1c0.6,0,1.5-0.2,1.7-1.1l0.5-2l0.7-2.8l0.6-2.5
		l0.6-2.5c2-0.4,3.9-0.7,5.7-0.9l-0.3,1.1h-3.9l-0.4,1.4h4l-0.2,0.8h-4l-0.4,1.5h4l-0.2,0.6h-4l-0.4,1.5h4l-0.7,2.9
		c-0.9-0.1-1.2-0.9-1.3-1.1l0.3-1.1h-2.4l-1.1,4.2h2.4l0.2-0.7c0.3,0.3,0.8,0.8,1.4,0.8h7.2c0,0,0.3-1.2,0.3-1.2
		c0.1-0.6,0.4-0.8,0.4-0.8h-5l0.2-0.7h3.4l0.4-1.4h-3.4l0.2-0.8h2.7c0.4,0,1.2-0.2,1.4-0.9l0.4-1.2h0.8l0.4-1.5h-0.8l0.5-2.2h-3.9
		l0.3-1.2c3.5-0.3,5.8-0.2,5.8-0.2c-1.3-0.4-3.3-0.6-5.6-0.7L121.9,91.3z M121.7,98.6l-1.6,0l0.2-0.8h2
		C122.2,97.8,122.1,98.6,121.7,98.6z M122.8,95.5l-0.2,0.8h-1.9l0.2-0.8H122.8z"/>
	<path class="st0" d="M53.9,106.3L53.9,106.3c-0.2,0-0.4,0.1-0.5,0.2c-0.1,0.1-0.2,0.2-0.2,0.3c0,0.1,0,0.1,0,0.2
		c0,0.1,0,0.1,0.1,0.2s0.1,0.1,0.2,0.2c0.1,0.1,0.2,0.1,0.3,0.2l0.1,0.1c0.1,0,0.1,0.1,0.1,0.1l0.1,0.1c0,0,0,0,0,0.1c0,0,0,0,0,0.1
		v0.1c0,0,0,0.1-0.1,0.1s-0.1,0.1-0.2,0.1s-0.2,0-0.3,0s-0.3,0-0.4,0s-0.3-0.1-0.5-0.1l-0.1,0.5c0.2,0,0.4,0.1,0.6,0.1s0.3,0,0.5,0
		c0.3,0,0.5,0,0.7-0.1c0.2-0.1,0.4-0.1,0.5-0.2s0.2-0.2,0.3-0.3c0-0.1,0-0.1,0-0.2c0-0.1,0-0.1-0.1-0.2c0-0.1-0.1-0.1-0.2-0.2
		s-0.2-0.1-0.3-0.2c-0.1-0.1-0.2-0.1-0.2-0.1c0,0-0.1-0.1-0.1-0.1c0,0,0-0.1,0-0.1v-0.1c0,0,0-0.1,0.1-0.1s0.1-0.1,0.2-0.1
		c0.1,0,0.2,0,0.3,0c0.2,0,0.4,0,0.7,0.1l0.1-0.5c-0.4,0-0.7-0.1-1-0.1C54.3,106.2,54.1,106.2,53.9,106.3z"/>
	<path class="st0" d="M45.7,106.5c-0.1-0.1-0.3-0.2-0.5-0.2s-0.4-0.1-0.7-0.1c-0.3,0-0.5,0-0.8,0.1s-0.5,0.2-0.7,0.3
		s-0.4,0.3-0.5,0.4c-0.1,0.2-0.2,0.3-0.3,0.5s-0.1,0.3,0,0.5c0,0.2,0.1,0.3,0.2,0.4c0.1,0.1,0.3,0.2,0.5,0.2s0.4,0.1,0.7,0.1
		c0.3,0,0.5,0,0.8-0.1c0.3-0.1,0.5-0.2,0.7-0.3s0.4-0.3,0.5-0.4c0.1-0.2,0.2-0.3,0.3-0.5c0.1-0.2,0.1-0.3,0-0.5
		C45.9,106.8,45.8,106.6,45.7,106.5z M45,107.4c0,0.2-0.1,0.3-0.2,0.4c-0.1,0.1-0.3,0.2-0.4,0.3s-0.3,0.1-0.5,0.1
		c-0.2,0-0.3,0-0.4-0.1s-0.2-0.2-0.2-0.3c0-0.1,0-0.2,0-0.4c0-0.2,0.1-0.3,0.2-0.4c0.1-0.1,0.3-0.2,0.4-0.3c0.2-0.1,0.4-0.1,0.5-0.1
		c0.2,0,0.3,0,0.4,0.1s0.2,0.2,0.2,0.3C45,107.1,45,107.3,45,107.4z"/>
	<path class="st0" d="M50.7,105.5h-0.9c0,0.1-0.1,0.2-0.1,0.4l-0.4,1l-0.4,1.2l-0.3,0.6h0.9l0.1-0.3l0.3-0.9l0.4-1.2L50.7,105.5z"/>
	<path class="st0" d="M48.9,106.2c-0.1,0-0.2,0-0.3,0c-0.1,0-0.2,0-0.3,0s-0.2,0-0.3,0.1c-0.1,0-0.2,0.1-0.2,0.1s-0.2,0.1-0.3,0.2
		l0.1-0.3h-0.9c0,0.1-0.1,0.2-0.1,0.2c0,0.1-0.1,0.3-0.1,0.4l-0.2,0.6l-0.4,1.1h0.9c0-0.1,0.1-0.2,0.1-0.3c0.1-0.2,0.1-0.4,0.2-0.6
		s0.1-0.3,0.2-0.4c0.1-0.1,0.1-0.2,0.2-0.3c0.1-0.1,0.2-0.2,0.3-0.2c0.1-0.1,0.2-0.1,0.3-0.1s0.2,0,0.4,0c0.1,0,0.2,0,0.3,0
		C48.8,106.6,48.8,106.4,48.9,106.2z"/>
	<path class="st0" d="M73.2,94.8c-1,0.1-2.1,0.2-3.1,0.4l-2,8.6h3.2l2.1-9C73.4,94.8,73.3,94.8,73.2,94.8z"/>
	<path class="st0" d="M81.2,94.5c-0.2,0-0.4,0-0.5,0c-2.1,0.1-3.5,0.6-4.9,1.6c-1.3,1-2,2.1-2.3,3.2c-0.1,0.2-0.1,0.4-0.1,0.7
		c-0.1,1.1,0.5,3,3.3,3.6c2.6,0.6,5.7-0.6,6.5-0.9l0.6-2.2c-0.8,0.4-6.4,3.2-6.8,0c0,0,4.5-0.8,5.2-0.9c0.8-0.2,2.7-0.8,2.9-2.4
		c0.1-0.6-0.1-1.1-0.4-1.5C84,95,82.8,94.5,81.2,94.5z M79.8,99.2c-2.8,0.5-2.9,0.5-2.9,0.5s0.5-2.5,3.6-3.4
		C82.5,95.9,82.6,98.7,79.8,99.2z"/>
	<path class="st0" d="M62.5,104c-0.3,0.9-0.6,1.5-1,1.9c-0.4,0.4-1.2,0.8-2.3,1.1c0,0,0,0,0,0l-0.4,1.7c1-0.1,3.7-0.4,5.4-2.1
		c0.9-0.9,1.5-2.1,1.8-3.2l2-8c-1.2,0.2-2.3,0.3-3.4,0.5C63.8,99.3,63.1,102,62.5,104z"/>
	<polygon class="st0" points="34.1,95 29.9,95 26.7,103.8 30.9,103.8 	"/>
	<path class="st0" d="M54,94.5L54,94.5c0,0-0.7,3.7-1.2,5.7c-0.1,0.3-0.2,0.5-0.3,0.7l0,0c0,0.1-0.1,0.1-0.1,0.2
		c-0.3,0.5-0.8,0.8-1.9,0.9c-1.4,0.1-2.1-0.2-1.9-1.2l1.5-6.3h-3.4l-1.7,7.2c-0.2,0.9,0.3,1.5,1.1,1.8c0.4,0.2,1,0.3,1.7,0.3
		c5.3,0,7.1-0.1,7.9-2.3c0.4-1.2,1.6-7,1.6-7H54z"/>
	<path class="st0" d="M62.3,96.4C61.1,96.6,60,96.8,59,97l-1.6,6.8h3.2L62.3,96.4z"/>
</g>
</svg>
